<?xml version="1.0" encoding="utf-8"?>
<!-- Generator: Adobe Illustrator 26.5.0, SVG Export Plug-In . SVG Version: 6.00 Build 0)  -->
<svg version="1.1" id="Layer_1" xmlns="http://www.w3.org/2000/svg" xmlns:xlink="http://www.w3.org/1999/xlink" x="0px" y="0px"
	 viewBox="0 0 595.28 841.89" style="enable-background:new 0 0 595.28 841.89;" xml:space="preserve">
<style type="text/css">
	.st0{fill:#754C29;}
	.st1{font-family:'ComicSansMS';}
	.st2{font-size:44px;}
	.st3{font-family:'ImprintMT-Shadow';}
	.st4{font-size:84.1262px;}
	.st5{opacity:0.5;stroke:#A97C50;stroke-width:2;stroke-miterlimit:10;}
	.st6{fill:#A97C50;}
</style>
<text transform="matrix(1 0 0 1 297.6382 433.2324)" class="st0 st1 st2">KING</text>
<text transform="matrix(-1 9.942530e-04 -9.942530e-04 -1 258.6227 379.9528)" class="st3 st4">7</text>
<text transform="matrix(1 -9.900354e-04 9.900354e-04 1 253.2294 420.971)" class="st3 st2">00</text>
<g>
	<g>
		<path d="M290.16,410.24c6.43,0,6.45-10,0-10C283.73,400.24,283.71,410.24,290.16,410.24L290.16,410.24z"/>
	</g>
</g>
<g>
	<g>
		<path d="M268.2,410.6c6.43,0,6.45-10,0-10C261.77,400.6,261.75,410.6,268.2,410.6L268.2,410.6z"/>
	</g>
</g>
<path class="st5" d="M386.73,399.48c8.25-0.6,16.5-1.2,24.75-1.8c0.78-5.76,1.56-11.52,2.34-17.28c-3.01,3.92-6.01,7.85-9.02,11.77
	c-1.78-5.72-3.57-11.45-5.35-17.17c-1.77,5.85-3.53,11.69-5.3,17.54c-2.86-4.23-5.73-8.46-8.59-12.68
	C385.95,386.4,386.34,392.94,386.73,399.48z"/>
<g>
	<g>
		<path class="st6" d="M384.6,379.3c3.22,0,3.22-5,0-5C381.38,374.3,381.38,379.3,384.6,379.3L384.6,379.3z"/>
	</g>
</g>
<g>
	<g>
		<path class="st6" d="M399.48,375.22c3.22,0,3.22-5,0-5C396.26,370.22,396.26,375.22,399.48,375.22L399.48,375.22z"/>
	</g>
</g>
<g>
	<g>
		<path class="st6" d="M415.08,380.5c3.22,0,3.22-5,0-5C411.86,375.5,411.86,380.5,415.08,380.5L415.08,380.5z"/>
	</g>
</g>
<g>
	<g>
		<path d="M415.08,379.56c1.93,0,1.93-3,0-3C413.15,376.56,413.15,379.56,415.08,379.56L415.08,379.56z"/>
	</g>
</g>
<g>
	<g>
		<path d="M399.6,374.52c1.93,0,1.93-3,0-3C397.67,371.52,397.67,374.52,399.6,374.52L399.6,374.52z"/>
	</g>
</g>
<g>
	<g>
		<path d="M384.66,378.84c1.93,0,1.93-3,0-3C382.73,375.84,382.73,378.84,384.66,378.84L384.66,378.84z"/>
	</g>
</g>
</svg>
